<svg xmlns="http://www.w3.org/2000/svg" width="23.635" height="23.635" viewBox="0 0 23.635 23.635">
  <g id="icons8-googleのロゴ" transform="translate(-4 -4)">
    <path id="パス_9" data-name="パス 9" d="M27.4,13.5h-.952v-.049H15.817v4.727H22.5a7.1,7.1,0,1,1-1.975-7.658L23.864,7.18a11.805,11.805,0,1,0,3.771,8.637A11.9,11.9,0,0,0,27.4,13.5Z" fill="#fbc02d"/>
    <path id="パス_10" data-name="パス 10" d="M6.306,10.317l3.883,2.847a7.076,7.076,0,0,1,11.276-2.642L24.807,7.18a11.794,11.794,0,0,0-18.5,3.137Z" transform="translate(-0.943)" fill="#e53935"/>
    <path id="パス_11" data-name="パス 11" d="M16.715,37.476a11.762,11.762,0,0,0,7.923-3.068l-3.657-3.095a7.072,7.072,0,0,1-10.932-3.259L6.195,31.023A11.808,11.808,0,0,0,16.715,37.476Z" transform="translate(-0.898 -9.841)" fill="#4caf50"/>
    <path id="パス_12" data-name="パス 12" d="M35.587,20.049,35.578,20H24v4.727h6.679a7.114,7.114,0,0,1-2.415,3.292h0l3.657,3.095a11.431,11.431,0,0,0,3.894-8.749A11.9,11.9,0,0,0,35.587,20.049Z" transform="translate(-8.183 -6.546)" fill="#1565c0"/>
  </g>
</svg>
