<svg xmlns="http://www.w3.org/2000/svg" width="21.772" height="21.772" viewBox="0 0 21.772 21.772">
  <g id="レイヤー_2" data-name="レイヤー 2" transform="translate(0 0)">
    <g id="レイヤー_1" data-name="レイヤー 1">
      <g id="レイヤー_2-2" data-name="レイヤー 2">
        <g id="LINE_LOGO" data-name="LINE LOGO">
          <circle id="楕円形_52" data-name="楕円形 52" cx="10.886" cy="10.886" r="10.886" transform="translate(0 0)" fill="#4cc764"/>
          <path id="パス_92984" data-name="パス 92984" d="M31.355,25.992c0-3.3-3.311-5.992-7.375-5.992s-7.39,2.688-7.39,5.992c0,2.962,2.626,5.442,6.174,5.911.241.053.568.159.65.365a1.5,1.5,0,0,1,.024.664s-.086.522-.106.633c-.031.188-.148.73.641.4a23.75,23.75,0,0,0,5.8-4.283h0a5.363,5.363,0,0,0,1.582-3.69Z" transform="translate(-12.92 -15.576)" fill="#fff"/>
          <path id="パス_92985" data-name="パス 92985" d="M64.452,43.428a.139.139,0,0,0,.139-.137v-.524a.139.139,0,0,0-.139-.137H63.043v-.544h1.409a.139.139,0,0,0,.139-.139v-.524a.139.139,0,0,0-.139-.137H63.043v-.544h1.409a.139.139,0,0,0,.139-.139v-.522a.139.139,0,0,0-.139-.139H62.379a.139.139,0,0,0-.139.139h0v3.2h0a.139.139,0,0,0,.139.139h2.073Z" transform="translate(-48.472 -31.105)" fill="#4cc764"/>
          <path id="パス_92986" data-name="パス 92986" d="M29.762,43.4a.139.139,0,0,0,.139-.137v-.524a.139.139,0,0,0-.139-.137H28.353v-2.56a.139.139,0,0,0-.139-.137H27.69a.139.139,0,0,0-.139.137v3.214h0a.139.139,0,0,0,.139.139h2.073Z" transform="translate(-21.456 -31.082)" fill="#4cc764"/>
          <rect id="長方形_33095" data-name="長方形 33095" width="0.805" height="3.504" rx="0.403" transform="translate(8.89 8.819)" fill="#4cc764"/>
          <path id="パス_92987" data-name="パス 92987" d="M49.061,39.87H48.55a.139.139,0,0,0-.139.137v1.916l-1.473-1.991-.013-.015h-.637a.139.139,0,0,0-.137.139v3.2a.137.137,0,0,0,.137.137h.524a.139.139,0,0,0,.139-.137V41.319l1.475,1.991a.193.193,0,0,0,.038.035h.58a.139.139,0,0,0,.137-.139V40.012a.139.139,0,0,0-.135-.142Z" transform="translate(-35.941 -31.051)" fill="#4cc764"/>
        </g>
      </g>
    </g>
  </g>
</svg>
