<svg xmlns="http://www.w3.org/2000/svg" width="16" height="16" viewBox="0 0 16 16">
  <g id="グループ_1888" data-name="グループ 1888" transform="translate(6189 9967)">
    <path id="パス_1265" data-name="パス 1265" d="M8,0A8,8,0,1,1,0,8,8,8,0,0,1,8,0Z" transform="translate(-6189 -9967)" fill="#888"/>
    <path id="パス_1266" data-name="パス 1266" d="M4.11-4.65v-.97c-.33.02-.74.05-1.83.07-.02-1.28-.02-1.43-.03-1.78.25-.23.28-.26.28-.32,0-.13-.04-.13-.35-.16L1.14-7.9a14.263,14.263,0,0,1,.18,2.36H-1.14a11.7,11.7,0,0,1,.08-1.57c.14-.08.29-.17.29-.31s-.13-.16-.32-.18l-.98-.09a18.082,18.082,0,0,1,.09,1.96v.19c-.6,0-1.55-.04-2.14-.08v.97c.75-.05,1.06-.05,2.14-.08v.51c0,.3-.06,1.63-.1,1.96h1.05a10.112,10.112,0,0,1-.11-1.86v-.61H1.31C1.27-2.66,1.09-1.4-1.53-.19l.86.67A5.753,5.753,0,0,0,1.29-1.08a5.674,5.674,0,0,0,.99-3.64C3.35-4.7,3.72-4.67,4.11-4.65Z" transform="translate(-6181 -9955)" fill="#fff"/>
  </g>
</svg>
