<svg xmlns="http://www.w3.org/2000/svg" width="16" height="16" viewBox="0 0 16 16">
  <g id="グループ_1889" data-name="グループ 1889" transform="translate(6159 9967)">
    <path id="パス_1261" data-name="パス 1261" d="M8,0A8,8,0,1,1,0,8,8,8,0,0,1,8,0Z" transform="translate(-6159 -9967)" fill="#888"/>
    <path id="パス_1262" data-name="パス 1262" d="M4.51-1.08A7.734,7.734,0,0,1,1.36-4.16a7.571,7.571,0,0,0,.96-.67c.91-.77,1.01-.85,1.14-.96.13.01.35.03.35-.13,0-.05-.03-.1-.12-.16l-.88-.64A7.574,7.574,0,0,1,.95-4.96,8.276,8.276,0,0,1,.52-6.1c0-.43,0-.74.04-1.76C.72-7.93.87-8,.87-8.1c0-.14-.28-.17-.35-.18l-.98-.08c.04,1.33.04,1.48.04,2.28V-.62c0,.19-.04.33-.33.33a4.789,4.789,0,0,1-.92-.16L-1.26.64c.15.01.33.03.58.03C.47.67.56.28.56-.45c0-.18-.03-1.09-.03-1.3C.52-2.65.52-2.76.52-2.93v-1A8.452,8.452,0,0,0,3.7-.27ZM-.46-5.7l-.38-.4c-.49.03-.97.04-1.04.04H-2.95a7.692,7.692,0,0,1-1.19-.07v1.04a11.9,11.9,0,0,1,1.28-.14h1.23A5.621,5.621,0,0,1-4.61-1.2l.8.79A5.523,5.523,0,0,0-2.05-2.08,11.634,11.634,0,0,0-.46-5.7Z" transform="translate(-6151 -9955)" fill="#fff"/>
  </g>
</svg>
