<svg xmlns="http://www.w3.org/2000/svg" width="16" height="16" viewBox="0 0 16 16">
  <g id="グループ_1890" data-name="グループ 1890" transform="translate(6118 9967)">
    <path id="パス_1259" data-name="パス 1259" d="M8,0A8,8,0,1,1,0,8,8,8,0,0,1,8,0Z" transform="translate(-6118 -9967)" fill="#888"/>
    <path id="パス_1263" data-name="パス 1263" d="M4.8-2.95A5.791,5.791,0,0,1,2.6-4.01V-5.28c0-.17-.01-1.02-.01-1.21.01-.55.01-1,.04-1.3.29-.15.32-.17.32-.27,0-.07-.05-.13-.25-.15L1.59-8.34c.04.63.06,2.35.06,2.99v.45a6.281,6.281,0,0,1-.47-.66l-.6.89A8.359,8.359,0,0,0,1.65-3.43v.64c0,.72,0,2.92-.06,3.52H2.7S2.65-.65,2.64-.82c-.02-.56-.04-1.27-.04-1.86a6.82,6.82,0,0,0,1.47.75ZM.55-6.18l-.4-.41c-.36.03-.82.06-1.14.06h-.8c.09-.3.27-.89.27-.89.3-.09.33-.1.33-.21s-.1-.15-.17-.17l-1.12-.31A7.048,7.048,0,0,1-4.9-3.51l.95.57a6.1,6.1,0,0,0,.83-.9A3.625,3.625,0,0,1-1.79-2.73a5.636,5.636,0,0,1-3,2.37l.88.82A8.607,8.607,0,0,0,.55-6.18Zm-1.07.46a8.461,8.461,0,0,1-.72,2.08,5.382,5.382,0,0,0-1.36-1,9.859,9.859,0,0,0,.53-1.08Z" transform="translate(-6110 -9955)" fill="#fff"/>
  </g>
</svg>
