<svg xmlns="http://www.w3.org/2000/svg" width="16" height="16" viewBox="0 0 16 16">
  <g id="グループ_1891" data-name="グループ 1891" transform="translate(6083 9967)">
    <path id="パス_1260" data-name="パス 1260" d="M8,0A8,8,0,1,1,0,8,8,8,0,0,1,8,0Z" transform="translate(-6083 -9967)" fill="#888"/>
    <path id="パス_1264" data-name="パス 1264" d="M3.63-.5a6.4,6.4,0,0,1-.09-1.18c0-.18-.03-1.04-.03-1.24V-4.9c0-.56.02-1.74.06-2.26-.69.04-1.75.05-2.46.05H-1.04c-.62,0-1.87-.02-2.46-.08.02.26.05,1.79.05,2.1v2.08c0,.11,0,.22-.01,1.19a10.563,10.563,0,0,1-.08,1.3H-2.4c-.02-.17-.02-.43-.02-.58H2.45a4.519,4.519,0,0,1-.07.6ZM2.49-1.99H-2.43v-4.2H2.49Z" transform="translate(-6075 -9955)" fill="#fff"/>
  </g>
</svg>
