<svg xmlns="http://www.w3.org/2000/svg" width="16" height="16" viewBox="0 0 16 16">
  <g id="グループ_1894" data-name="グループ 1894" transform="translate(6159 9922)">
    <g id="グループ_1892" data-name="グループ 1892" transform="translate(30 45)">
      <g id="パス_1265" data-name="パス 1265" transform="translate(-6189 -9967)" fill="none">
        <path d="M8,0A8,8,0,1,1,0,8,8,8,0,0,1,8,0Z" stroke="none"/>
        <path d="M 8 1 C 4.140190124511719 1 1 4.140190124511719 1 8 C 1 11.85980987548828 4.140190124511719 15 8 15 C 11.85980987548828 15 15 11.85980987548828 15 8 C 15 4.140190124511719 11.85980987548828 1 8 1 M 8 0 C 12.41827964782715 0 16 3.581720352172852 16 8 C 16 12.41827964782715 12.41827964782715 16 8 16 C 3.581720352172852 16 0 12.41827964782715 0 8 C 0 3.581720352172852 3.581720352172852 0 8 0 Z" stroke="none" fill="#888"/>
      </g>
    </g>
    <path id="パス_1268" data-name="パス 1268" d="M5,0V5H0" transform="translate(-6146 -9919) rotate(90)" fill="none" stroke="#888" stroke-width="1"/>
  </g>
</svg>
