<svg xmlns="http://www.w3.org/2000/svg" width="21.772" height="21.772" viewBox="0 0 21.772 21.772">
  <g id="グループ_46584" data-name="グループ 46584" transform="translate(0 0)">
    <circle id="楕円形_4" data-name="楕円形 4" cx="10.886" cy="10.886" r="10.886" transform="translate(0 0)" fill="#1da1f2"/>
    <path id="パス_447" data-name="パス 447" d="M93.614,124.644a7.238,7.238,0,0,0,7.287-7.287c0-.112,0-.223,0-.329a5.247,5.247,0,0,0,1.28-1.328,5.2,5.2,0,0,1-1.471.4,2.559,2.559,0,0,0,1.126-1.418,5.186,5.186,0,0,1-1.625.621,2.562,2.562,0,0,0-4.429,1.753,2.347,2.347,0,0,0,.069.584,7.265,7.265,0,0,1-5.279-2.677,2.56,2.56,0,0,0,.8,3.415,2.516,2.516,0,0,1-1.158-.319v.032a2.564,2.564,0,0,0,2.055,2.512,2.554,2.554,0,0,1-.674.09,2.444,2.444,0,0,1-.483-.048,2.557,2.557,0,0,0,2.39,1.779,5.148,5.148,0,0,1-3.181,1.094,4.657,4.657,0,0,1-.611-.037,7.135,7.135,0,0,0,3.914,1.158" transform="translate(-84.451 -107.933)" fill="#fff"/>
  </g>
</svg>
